<?xml version="1.0" encoding="utf-8"?>
<!-- Generator: Adobe Illustrator 25.0.1, SVG Export Plug-In . SVG Version: 6.00 Build 0)  -->
<svg version="1.1" xmlns="http://www.w3.org/2000/svg" xmlns:xlink="http://www.w3.org/1999/xlink" x="0px" y="0px"
	 viewBox="0 0 467 250.2" style="enable-background:new 0 0 467 250.2;" xml:space="preserve">
<style type="text/css">
	.st0{fill:#FFFFFF;}
</style>
<g id="Layer_1">
	<g>
		<path class="st0" d="M293.7,153.5c-6,0-10.9-4.9-10.9-10.9s4.9-10.9,10.9-10.9c6,0,10.9,4.9,10.9,10.9S299.7,153.5,293.7,153.5
			 M172.9,153.5c-6,0-10.9-4.9-10.9-10.9s4.9-10.9,10.9-10.9c6,0,10.9,4.9,10.9,10.9S179,153.5,172.9,153.5 M297.6,87.7l21.8-37.8
			c1.3-2.2,0.5-5-1.7-6.2c-2.2-1.3-5-0.5-6.2,1.7l-22.1,38.3c-16.9-7.7-35.9-12-56.2-12c-20.3,0-39.3,4.3-56.2,12l-22.1-38.3
			c-1.3-2.2-4-2.9-6.2-1.7c-2.2,1.3-2.9,4-1.7,6.2L169,87.7c-37.5,20.4-63.1,58.4-66.9,103.2h262.4C360.8,146,335.1,108,297.6,87.7"
			/>
	</g>
</g>
<g id="Layer_2">
</g>
</svg>
