<?xml version="1.0" encoding="utf-8"?>
<!-- Generator: Adobe Illustrator 25.0.1, SVG Export Plug-In . SVG Version: 6.00 Build 0)  -->
<svg version="1.1"
	 id="svg2" xmlns:cc="http://creativecommons.org/ns#" xmlns:dc="http://purl.org/dc/elements/1.1/" xmlns:rdf="http://www.w3.org/1999/02/22-rdf-syntax-ns#" xmlns:svg="http://www.w3.org/2000/svg"
	 xmlns="http://www.w3.org/2000/svg" xmlns:xlink="http://www.w3.org/1999/xlink" x="0px" y="0px" viewBox="0 0 406 100"
	 style="enable-background:new 0 0 406 100;" xml:space="preserve">
<style type="text/css">
	.st0{fill:#FFFFFF;}
</style>
<g>
	<path class="st0" d="M352.9,0H53.1C21.3-0.1,0,22.7,0,50.1C0,77.4,21.3,100,53.1,100h299.8c31.8,0,53.1-22.6,53.1-49.9
		C406,22.7,384.7-0.1,352.9,0z M352.8,87.7H53.2C27.9,87.8,12.6,70.9,12.6,50c0-20.8,15.5-37.7,40.7-37.7h299.6
		c25.2,0,40.7,16.9,40.7,37.7C393.4,70.9,378.1,87.8,352.8,87.7z"/>
	<polygon class="st0" points="75.3,59.2 55,26.4 40.3,26.4 40.3,26.4 40.3,73.5 54.9,73.5 54.9,40.6 75.3,73.5 89.8,73.5 89.8,26.4 
		75.3,26.4 	"/>
	<polygon class="st0" points="190.8,42.2 190.8,37.6 183.1,37.6 183.1,31.2 168.9,31.2 168.9,37.6 161.2,37.6 161.2,42.2 
		168.9,42.2 168.9,73.5 183.1,73.5 183.1,42.2 	"/>
	<rect x="97.9" y="42.1" class="st0" width="14.2" height="31.3"/>
	<rect x="97.9" y="26.4" class="st0" width="14.2" height="9.6"/>
	<path class="st0" d="M351.7,57.6L351.7,57.6L351.7,57.6C351.7,57.5,351.7,57.6,351.7,57.6z"/>
	<path class="st0" d="M346,40c-11.4,0-20.7,7.9-20.7,17.6c0,9.7,9.3,17.6,20.7,17.6c11.4,0,20.7-7.9,20.7-17.6
		C366.7,47.9,357.4,40,346,40z M351.7,57.6C351.7,57.6,351.7,57.5,351.7,57.6L351.7,57.6c0,0,0,4.7,0,6.6c0,5-2.9,7-5.8,7
		c-2.8,0-5.8-2.1-5.8-7c0-1.9,0-6.8,0-6.8s0-4.6,0-6.5c0-5,3-7,5.8-7c2.8,0,5.8,2,5.8,7C351.7,52.8,351.7,56.3,351.7,57.6
		L351.7,57.6L351.7,57.6z"/>
	<path class="st0" d="M306.7,43.7c-2.3-1.3-4.7-2.5-8-2.8c-10.2-0.9-18,8.1-18,16.4c0,10.9,8.4,14.9,9.7,15.5
		c4.8,2.2,10.9,2.2,16.3-1.2c0,0.3,0,1.8,0,1.8h14V26.4h-14V43.7z M306.8,57.6v5.5c0,4.9-3.3,6.1-5.5,6.1c-2.3,0-5.6-1.2-5.6-6.1
		v-5.6V52c0-4.8,3.3-6.1,5.6-6.1c2.2,0,5.5,1.2,5.5,6.1V57.6z"/>
	<path class="st0" d="M145.2,40.7L145.2,40.7c-4.7,0.1-8.6,2.1-11.3,4.7c0-0.8,0-3.3,0-3.3l-14.1,0l0,31.3h14.1c0,0,0-19.2,0-20.6
		c0-2.7,2.9-5.8,6.7-5.8c3.9,0,6.5,3,6.5,5.8v20.6h14.1c0,0,0-14.8,0-17C161.2,44,150.5,40.6,145.2,40.7z"/>
	<path class="st0" d="M260.3,40.7L260.3,40.7c-4.7,0.1-8.6,2.1-11.3,4.7c0-0.8,0-3.3,0-3.3l-14.1,0v31.3H249c0,0,0-19.2,0-20.6
		c0-2.7,2.9-5.8,6.7-5.8c3.9,0,6.5,3,6.5,5.8v20.6h14.1c0,0,0-14.8,0-17C276.3,44,265.5,40.6,260.3,40.7z"/>
	<path class="st0" d="M230.6,57.9c0-9.7-9.4-17.7-20.9-17.7c-11.5,0-20.8,7.9-20.8,17.6c0,9.7,9.3,17.6,20.8,17.6
		c9.6,0,17.6-5.5,20.1-12.8l-14.1,0h0c0,0,0,0.1,0,1.9c0,5.7-3.8,7-5.9,7c-2.1,0-5.9-1.3-5.9-7c0-1.7,0-6.5,0-6.5
		S230.6,58,230.6,57.9z M204.9,46.9c1.1-1.9,3.1-2.8,5-2.9c1.8,0,3.9,0.9,5,2.9c0.9,1.6,1,3.4,0.9,6.1H204
		C203.9,50.3,204,48.5,204.9,46.9z"/>
	<path class="st0" d="M373.9,29.9c0-2.1-1.3-3-3.8-3h-4.1v10.7h1.6v-4.6h1.9l2.8,4.6h1.8l-3-4.7C372.7,32.7,373.9,31.8,373.9,29.9z
		 M367.7,31.5v-3.3h2.2c1.1,0,2.3,0.2,2.3,1.6c0,1.7-1.2,1.7-2.6,1.7H367.7z"/>
	<path class="st0" d="M369.6,22.9c-5.1,0-9.4,3.9-9.4,9.3c0,5.4,4.3,9.3,9.4,9.3c5.1,0,9.4-3.9,9.4-9.3
		C379,26.9,374.7,22.9,369.6,22.9z M369.6,40c-4.2,0-7.6-3.3-7.6-7.8c0-4.4,3.3-7.7,7.6-7.7c4.2,0,7.5,3.3,7.5,7.7
		C377.2,36.7,373.8,40,369.6,40z"/>
</g>
</svg>
